<svg width="20" height="21" viewBox="0 0 20 21" fill="none" xmlns="http://www.w3.org/2000/svg">
<path d="M13.5306 8.03063L11.0603 10.5L13.5306 12.9694C13.6003 13.0391 13.6556 13.1218 13.6933 13.2128C13.731 13.3039 13.7504 13.4015 13.7504 13.5C13.7504 13.5985 13.731 13.6961 13.6933 13.7872C13.6556 13.8782 13.6003 13.9609 13.5306 14.0306C13.4609 14.1003 13.3782 14.1556 13.2872 14.1933C13.1961 14.231 13.0986 14.2504 13 14.2504C12.9015 14.2504 12.8039 14.231 12.7128 14.1933C12.6218 14.1556 12.5391 14.1003 12.4694 14.0306L10 11.5603L7.53063 14.0306C7.46095 14.1003 7.37822 14.1556 7.28718 14.1933C7.19613 14.231 7.09855 14.2504 7 14.2504C6.90146 14.2504 6.80388 14.231 6.71283 14.1933C6.62179 14.1556 6.53906 14.1003 6.46938 14.0306C6.3997 13.9609 6.34442 13.8782 6.30671 13.7872C6.269 13.6961 6.24959 13.5985 6.24959 13.5C6.24959 13.4015 6.269 13.3039 6.30671 13.2128C6.34442 13.1218 6.3997 13.0391 6.46938 12.9694L8.93969 10.5L6.46938 8.03063C6.32865 7.88989 6.24959 7.69902 6.24959 7.5C6.24959 7.30098 6.32865 7.11011 6.46938 6.96937C6.61011 6.82864 6.80098 6.74958 7 6.74958C7.19903 6.74958 7.3899 6.82864 7.53063 6.96937L10 9.43969L12.4694 6.96937C12.5391 6.89969 12.6218 6.84442 12.7128 6.8067C12.8039 6.76899 12.9015 6.74958 13 6.74958C13.0986 6.74958 13.1961 6.76899 13.2872 6.8067C13.3782 6.84442 13.4609 6.89969 13.5306 6.96937C13.6003 7.03906 13.6556 7.12178 13.6933 7.21283C13.731 7.30387 13.7504 7.40145 13.7504 7.5C13.7504 7.59855 13.731 7.69613 13.6933 7.78717C13.6556 7.87822 13.6003 7.96094 13.5306 8.03063ZM19.75 10.5C19.75 12.4284 19.1782 14.3134 18.1068 15.9168C17.0355 17.5202 15.5127 18.7699 13.7312 19.5078C11.9496 20.2458 9.98919 20.4389 8.09787 20.0627C6.20656 19.6865 4.46928 18.7579 3.10571 17.3943C1.74215 16.0307 0.813554 14.2934 0.437348 12.4021C0.061142 10.5108 0.254225 8.55042 0.992179 6.76884C1.73013 4.98726 2.97982 3.46451 4.58319 2.39317C6.18657 1.32183 8.07164 0.75 10 0.75C12.585 0.75273 15.0634 1.78084 16.8913 3.60872C18.7192 5.43661 19.7473 7.91498 19.75 10.5ZM18.25 10.5C18.25 8.8683 17.7661 7.27325 16.8596 5.91655C15.9531 4.55984 14.6646 3.50242 13.1571 2.87799C11.6497 2.25357 9.99085 2.09019 8.39051 2.40852C6.79017 2.72685 5.32016 3.51259 4.16637 4.66637C3.01259 5.82015 2.22685 7.29016 1.90853 8.8905C1.5902 10.4908 1.75358 12.1496 2.378 13.6571C3.00242 15.1646 4.05984 16.4531 5.41655 17.3596C6.77326 18.2661 8.36831 18.75 10 18.75C12.1873 18.7475 14.2843 17.8775 15.8309 16.3309C17.3775 14.7843 18.2475 12.6873 18.25 10.5Z" fill="#E32D2D"/>
</svg>
