<svg width="20" height="21" viewBox="0 0 20 21" fill="none" xmlns="http://www.w3.org/2000/svg">
<path d="M18.97 4.70156L10.72 0.187502C10.4996 0.0657037 10.2518 0.0018158 10 0.0018158C9.74816 0.0018158 9.50043 0.0657037 9.28 0.187502L1.03 4.70344C0.794395 4.83235 0.597722 5.02215 0.460517 5.25303C0.323313 5.4839 0.25061 5.74737 0.25 6.01594V14.9822C0.25061 15.2508 0.323313 15.5142 0.460517 15.7451C0.597722 15.976 0.794395 16.1658 1.03 16.2947L9.28 20.8106C9.50043 20.9324 9.74816 20.9963 10 20.9963C10.2518 20.9963 10.4996 20.9324 10.72 20.8106L18.97 16.2947C19.2056 16.1658 19.4023 15.976 19.5395 15.7451C19.6767 15.5142 19.7494 15.2508 19.75 14.9822V6.01688C19.7499 5.74783 19.6774 5.48377 19.5402 5.25236C19.403 5.02095 19.206 4.8307 18.97 4.70156ZM10 1.5L17.5319 5.625L14.7409 7.15313L7.20813 3.02813L10 1.5ZM10 9.75L2.46812 5.625L5.64625 3.885L13.1781 8.01L10 9.75ZM1.75 6.9375L9.25 11.0419V19.0847L1.75 14.9831V6.9375ZM18.25 14.9794L10.75 19.0847V11.0456L13.75 9.40406V12.75C13.75 12.9489 13.829 13.1397 13.9697 13.2803C14.1103 13.421 14.3011 13.5 14.5 13.5C14.6989 13.5 14.8897 13.421 15.0303 13.2803C15.171 13.1397 15.25 12.9489 15.25 12.75V8.58282L18.25 6.9375V14.9784V14.9794Z" fill="#22CB22"/>
</svg>
