<svg width="18" height="18" viewBox="0 0 18 18" fill="none" xmlns="http://www.w3.org/2000/svg">
<path d="M17.5153 7.17838L10.0153 0.384602C10.0116 0.381531 10.0082 0.378223 10.005 0.374701C9.72887 0.133601 9.36903 0 8.99578 0C8.62253 0 8.2627 0.133601 7.98656 0.374701L7.97625 0.384602L0.484687 7.17838C0.331873 7.31329 0.209891 7.47719 0.126461 7.6597C0.0430305 7.84221 -3.15402e-05 8.03936 1.73323e-08 8.23867V16.5599C1.73323e-08 16.9418 0.158035 17.3081 0.43934 17.5782C0.720644 17.8483 1.10218 18 1.5 18H6C6.39782 18 6.77936 17.8483 7.06066 17.5782C7.34196 17.3081 7.5 16.9418 7.5 16.5599V12.2395H10.5V16.5599C10.5 16.9418 10.658 17.3081 10.9393 17.5782C11.2206 17.8483 11.6022 18 12 18H16.5C16.8978 18 17.2794 17.8483 17.5607 17.5782C17.842 17.3081 18 16.9418 18 16.5599V8.23867C18 8.03936 17.957 7.84221 17.8735 7.6597C17.7901 7.47719 17.6681 7.31329 17.5153 7.17838ZM16.5 16.5599H12V12.2395C12 11.8576 11.842 11.4913 11.5607 11.2212C11.2794 10.9511 10.8978 10.7994 10.5 10.7994H7.5C7.10218 10.7994 6.72064 10.9511 6.43934 11.2212C6.15804 11.4913 6 11.8576 6 12.2395V16.5599H1.5V8.23867L1.51031 8.22967L9 1.43859L16.4906 8.22787L16.5009 8.23687L16.5 16.5599Z" fill="black"/>
</svg>
