<svg width="18" height="19" viewBox="0 0 18 19" fill="none" xmlns="http://www.w3.org/2000/svg">
<path d="M15.5316 14.9722C15.6715 15.1127 15.7501 15.303 15.7501 15.5014C15.7501 15.6998 15.6715 15.8901 15.5316 16.0306C15.4294 16.1309 13.0144 18.5 9 18.5C5.49469 18.5 2.95031 16.4 1.5 14.7641V17C1.5 17.1989 1.42098 17.3897 1.28033 17.5303C1.13968 17.671 0.948912 17.75 0.75 17.75C0.551088 17.75 0.360322 17.671 0.21967 17.5303C0.0790178 17.3897 0 17.1989 0 17V12.5C0 12.3011 0.0790178 12.1103 0.21967 11.9697C0.360322 11.829 0.551088 11.75 0.75 11.75H5.25C5.44891 11.75 5.63968 11.829 5.78033 11.9697C5.92098 12.1103 6 12.3011 6 12.5C6 12.6989 5.92098 12.8897 5.78033 13.0303C5.63968 13.171 5.44891 13.25 5.25 13.25H2.1975C3.3525 14.6891 5.71875 17 9 17C12.375 17 14.4506 14.9881 14.4713 14.9675C14.6125 14.8276 14.8035 14.7495 15.0024 14.7503C15.2012 14.7512 15.3915 14.831 15.5316 14.9722ZM17.25 1.25C17.0511 1.25 16.8603 1.32902 16.7197 1.46967C16.579 1.61032 16.5 1.80109 16.5 2V4.23594C15.0497 2.6 12.5053 0.5 9 0.5C4.98563 0.5 2.57063 2.86906 2.46938 2.96938C2.3284 3.10986 2.249 3.30059 2.24865 3.49961C2.24829 3.69863 2.32702 3.88965 2.4675 4.03063C2.60798 4.1716 2.79871 4.251 2.99774 4.25135C3.19676 4.25171 3.38777 4.17298 3.52875 4.0325C3.54938 4.01187 5.625 2 9 2C12.2812 2 14.6475 4.31094 15.8025 5.75H12.75C12.5511 5.75 12.3603 5.82902 12.2197 5.96967C12.079 6.11032 12 6.30109 12 6.5C12 6.69891 12.079 6.88968 12.2197 7.03033C12.3603 7.17098 12.5511 7.25 12.75 7.25H17.25C17.4489 7.25 17.6397 7.17098 17.7803 7.03033C17.921 6.88968 18 6.69891 18 6.5V2C18 1.80109 17.921 1.61032 17.7803 1.46967C17.6397 1.32902 17.4489 1.25 17.25 1.25Z" fill="#FFA800"/>
</svg>
