<svg width="14" height="14" viewBox="0 0 14 14" fill="none" xmlns="http://www.w3.org/2000/svg">
<path d="M13.8424 13.0813L10.4759 9.7155C11.4517 8.54407 11.9382 7.04156 11.8344 5.52054C11.7305 3.99952 11.0443 2.57708 9.91837 1.54914C8.79248 0.521198 7.31363 -0.0331083 5.78946 0.00153095C4.26529 0.0361702 2.81315 0.657088 1.73512 1.73512C0.657088 2.81315 0.0361702 4.26529 0.00153095 5.78946C-0.0331083 7.31363 0.521198 8.79248 1.54914 9.91837C2.57708 11.0443 3.99952 11.7305 5.52054 11.8344C7.04156 11.9382 8.54407 11.4517 9.7155 10.4759L13.0813 13.8424C13.1312 13.8923 13.1906 13.932 13.2559 13.959C13.3212 13.9861 13.3911 14 13.4618 14C13.5325 14 13.6025 13.9861 13.6678 13.959C13.7331 13.932 13.7924 13.8923 13.8424 13.8424C13.8923 13.7924 13.932 13.7331 13.959 13.6678C13.9861 13.6025 14 13.5325 14 13.4618C14 13.3911 13.9861 13.3212 13.959 13.2559C13.932 13.1906 13.8923 13.1312 13.8424 13.0813ZM1.09062 5.93152C1.09062 4.97408 1.37453 4.03814 1.90646 3.24206C2.43838 2.44598 3.19443 1.82551 4.07899 1.45911C4.96355 1.09271 5.93689 0.996847 6.87594 1.18363C7.81498 1.37042 8.67755 1.83147 9.35456 2.50849C10.0316 3.1855 10.4926 4.04807 10.6794 4.98711C10.8662 5.92615 10.7703 6.8995 10.4039 7.78406C10.0375 8.66862 9.41707 9.42466 8.62099 9.95659C7.8249 10.4885 6.88896 10.7724 5.93152 10.7724C4.64807 10.771 3.4176 10.2605 2.51006 9.35299C1.60252 8.44545 1.09204 7.21497 1.09062 5.93152Z" fill="#A7A7A7"/>
</svg>
