<?xml version="1.0" encoding="UTF-8"?>
<svg id="Laag_2" data-name="Laag 2" xmlns="http://www.w3.org/2000/svg" viewBox="0 0 401.71 55.13">
  <defs>
    <style>
      .cls-1 {
        stroke-width: 0px;
      }
    </style>
  </defs>
  <g id="Laag_1-2" data-name="Laag 1">
    <g>
      <path class="cls-1" d="m400,53.8h-14.54c-4.05-5.97-8.32-12.27-12.52-18.46h-104.05v18.38h-11.65V.77c1.79-.09,3.69-.26,5.6-.26,38.62-.02,77.24.15,115.86-.12,10.37-.07,23.02,3.99,23.02,17.66,0,10.89-8.33,15.22-15.61,16.73,5.05,6.55,9.47,12.28,13.9,18.02v1Zm-130.78-29.72c1.48.12,2.46.27,3.43.28,35.27.01,70.55.02,105.82-.02,1.65,0,3.34-.21,4.92-.64,3.24-.87,4.67-2.97,4.55-6.23-.12-3.12-1.9-5.09-5.25-5.56-1.47-.21-2.99-.17-4.48-.17-34.44,0-68.89,0-103.33,0-1.78,0-3.57.15-5.67.25v12.08Z"/>
      <path class="cls-1" d="m35.37,4.21v10.54c-2.43-.95-2.34-1.19-6.65-2.51s-8.38-1.61-11.32-1.44-5,.85-5.5,3.93c-.47,2.91,1.49,4.22,3.8,5.08,2.02.75,4.12,1.27,6.17,1.94,3.31,1.09,6.72,1.98,9.89,3.38,6.49,2.88,9.58,8.04,9.17,14.6-.41,6.65-4.39,11.98-10.98,14-7.22,2.21-14.48,1.64-21.6-.67-2.33-.76-4.53-1.92-6.89-2.94v-10.81c4.27,1.3,8.27,2.84,12.4,3.68,3.21.65,6.62.67,9.91.47,2.33-.14,4.62-1.19,5.05-4.01.45-2.95-1.65-4.24-3.9-5.03-3.76-1.32-7.6-2.43-11.44-3.5C7.65,29.32,0,27.95,0,14.18S21.28-4.19,35.37,4.21Z"/>
      <path class="cls-1" d="m123.09,53.85V.94h72.18v10.63h-60.02v10.33h60.02v10.62h-59.95v10.14h59.89v11.17h-72.13Z"/>
      <path class="cls-1" d="m69.68,53.86h-17.31c-4.11-17.56-8.19-34.99-12.4-52.93h12.75c2.63,12.49,5.31,25.2,7.99,37.9.26-.02.51-.03.77-.05,2.94-12.54,5.89-25.08,8.9-37.92h16.45c3.21,12.66,6.43,25.33,9.64,38,.26.03.52.06.79.09,2.64-12.58,5.27-25.15,7.98-38.07h12.84c-4.16,17.8-8.23,35.23-12.35,52.89h-17.44c-2.97-12.77-5.9-25.37-8.83-37.96-.28-.06-.56-.11-.84-.17-2.94,12.57-5.88,25.15-8.93,38.21Z"/>
      <path class="cls-1" d="m218.19.69h15.65c6.13,17.47,12.27,34.95,18.6,52.99h-12.11c-1.25-3.37-2.55-6.9-3.93-10.62h-20.77c-1.28,3.48-2.58,7.01-3.95,10.75h-12.1c6.29-17.94,12.41-35.42,18.61-53.13Zm.9,31.22h13.79c-2.25-6.73-4.4-13.12-6.54-19.52-.27.06-.55.13-.82.19-2.08,6.25-4.16,12.5-6.43,19.33Z"/>
    </g>
  </g>
</svg>